<svg xmlns="http://www.w3.org/2000/svg" version="1.1" xmlns:xlink="http://www.w3.org/1999/xlink" width="512" height="512" x="0" y="0" viewBox="0 0 512 512" style="enable-background:new 0 0 512 512" xml:space="preserve" class=""><g><circle cx="256" cy="256" r="256" fill="#5c5560" opacity="1" data-original="#5c5560"></circle><circle cx="256" cy="256" r="256" fill="#f1f1f1" opacity="1" data-original="#eeeeee" class=""></circle><path fill="#fbbb00" d="M476.984 213.983H260.943v88.977H381.21c-10.825 28.892-31.377 53.028-57.674 68.45-19.809 11.629-42.894 18.29-67.536 18.29-57.328 0-106.229-36.086-125.223-86.778-5.487-14.595-8.477-30.413-8.477-46.923 0-15.213 2.545-29.832 7.217-43.45 18.042-52.509 67.858-90.25 126.483-90.25 25.964 0 50.198 7.402 70.7 20.218l72.863-59.652C360.61 50.525 310.573 31.086 256 31.086c-86.925 0-162.333 49.308-199.766 121.479C40.156 183.533 31.086 218.703 31.086 256c0 38.569 9.701 74.864 26.805 106.587C95.879 433.039 170.348 480.914 256 480.914c53.299 0 102.262-18.536 140.806-49.518 39.632-31.859 68.24-76.878 79.19-128.436 3.226-15.151 4.918-30.858 4.918-46.96 0-14.36-1.347-28.411-3.93-42.017z" opacity="1" data-original="#fbbb00" class=""></path><path fill="#28b446" d="m396.794 431.384.013.013C358.262 462.378 309.3 480.914 256 480.914c-85.652 0-160.121-47.874-198.109-118.327l72.887-59.664c18.994 50.692 67.894 86.778 125.223 86.778 24.642 0 47.727-6.661 67.536-18.29z" opacity="1" data-original="#28b446" class=""></path><path fill="#518ef8" d="M476.984 213.983a225.165 225.165 0 0 1 3.93 42.017c0 16.102-1.693 31.809-4.918 46.96-10.949 51.557-39.558 96.577-79.19 128.436l-.013-.013-73.258-59.973c26.298-15.423 46.849-39.558 57.674-68.45H260.942v-88.977h122.023z" opacity="1" data-original="#518ef8" class=""></path><path fill="#fc3f1d" d="M399.562 82.866 326.7 142.518C306.198 129.702 281.965 122.3 256 122.3c-58.626 0-108.441 37.741-126.483 90.25l-73.27-59.985h-.013C93.667 80.394 169.074 31.086 256 31.086c54.573 0 104.61 19.439 143.562 51.78z" opacity="1" data-original="#fc3f1d" class=""></path></g></svg>