<svg width="95" height="81" viewBox="0 0 95 81" fill="none" xmlns="http://www.w3.org/2000/svg">
<path d="M16.3333 19.6667H69.6667M16.3333 19.6667L33 3M16.3333 19.6667L33 36.3333" stroke="#F35640" stroke-width="5.33333" stroke-linecap="round" stroke-linejoin="round"/>
<path d="M43 3V36.3333ZM43 3H59.6667C61.5077 3 63 4.4924 63 6.33333V33C63 34.841 61.5077 36.3333 59.6667 36.3333H43" stroke="#F35640" stroke-width="5.33333" stroke-linecap="round" stroke-linejoin="round"/>
<path d="M5.3042 46.8H17.3642C17.9882 46.8 18.5042 47.004 18.9122 47.412C19.3442 47.796 19.5602 48.3 19.5602 48.924C19.5602 49.524 19.3442 50.016 18.9122 50.4C18.5042 50.76 17.9882 50.94 17.3642 50.94H7.2842L7.6082 50.328V57.348L7.3202 57.06H15.7442C16.3682 57.06 16.8842 57.264 17.2922 57.672C17.7242 58.056 17.9402 58.56 17.9402 59.184C17.9402 59.784 17.7242 60.276 17.2922 60.66C16.8842 61.02 16.3682 61.2 15.7442 61.2H7.4282L7.6082 60.912V68.184L7.3202 67.86H17.3642C17.9882 67.86 18.5042 68.076 18.9122 68.508C19.3442 68.916 19.5602 69.396 19.5602 69.948C19.5602 70.548 19.3442 71.04 18.9122 71.424C18.5042 71.808 17.9882 72 17.3642 72H5.3042C4.6802 72 4.1522 71.796 3.7202 71.388C3.3122 70.956 3.1082 70.428 3.1082 69.804V48.996C3.1082 48.372 3.3122 47.856 3.7202 47.448C4.1522 47.016 4.6802 46.8 5.3042 46.8ZM38.942 45.36C39.566 45.36 40.082 45.564 40.49 45.972C40.898 46.38 41.102 46.908 41.102 47.556V69.804C41.102 70.428 40.898 70.956 40.49 71.388C40.082 71.796 39.566 72 38.942 72C38.318 72 37.802 71.796 37.394 71.388C36.986 70.956 36.782 70.428 36.782 69.804V68.04L37.574 68.364C37.574 68.676 37.406 69.06 37.07 69.516C36.734 69.948 36.278 70.38 35.702 70.812C35.126 71.244 34.442 71.616 33.65 71.928C32.882 72.216 32.042 72.36 31.13 72.36C29.474 72.36 27.974 71.94 26.63 71.1C25.286 70.236 24.218 69.06 23.426 67.572C22.658 66.06 22.274 64.332 22.274 62.388C22.274 60.42 22.658 58.692 23.426 57.204C24.218 55.692 25.274 54.516 26.594 53.676C27.914 52.812 29.378 52.38 30.986 52.38C32.018 52.38 32.966 52.536 33.83 52.848C34.694 53.16 35.438 53.556 36.062 54.036C36.71 54.516 37.202 55.008 37.538 55.512C37.898 55.992 38.078 56.4 38.078 56.736L36.782 57.204V47.556C36.782 46.932 36.986 46.416 37.394 46.008C37.802 45.576 38.318 45.36 38.942 45.36ZM31.67 68.4C32.726 68.4 33.65 68.136 34.442 67.608C35.234 67.08 35.846 66.36 36.278 65.448C36.734 64.536 36.962 63.516 36.962 62.388C36.962 61.236 36.734 60.204 36.278 59.292C35.846 58.38 35.234 57.66 34.442 57.132C33.65 56.604 32.726 56.34 31.67 56.34C30.638 56.34 29.726 56.604 28.934 57.132C28.142 57.66 27.518 58.38 27.062 59.292C26.63 60.204 26.414 61.236 26.414 62.388C26.414 63.516 26.63 64.536 27.062 65.448C27.518 66.36 28.142 67.08 28.934 67.608C29.726 68.136 30.638 68.4 31.67 68.4ZM60.634 52.74C61.258 52.74 61.774 52.956 62.182 53.388C62.59 53.796 62.794 54.312 62.794 54.936V64.08C62.794 66.624 62.086 68.64 60.67 70.128C59.254 71.616 57.214 72.36 54.55 72.36C51.886 72.36 49.846 71.616 48.43 70.128C47.038 68.64 46.342 66.624 46.342 64.08V54.936C46.342 54.312 46.546 53.796 46.954 53.388C47.362 52.956 47.878 52.74 48.502 52.74C49.126 52.74 49.642 52.956 50.05 53.388C50.458 53.796 50.662 54.312 50.662 54.936V64.08C50.662 65.544 50.986 66.636 51.634 67.356C52.282 68.052 53.254 68.4 54.55 68.4C55.87 68.4 56.854 68.052 57.502 67.356C58.15 66.636 58.474 65.544 58.474 64.08V54.936C58.474 54.312 58.678 53.796 59.086 53.388C59.494 52.956 60.01 52.74 60.634 52.74ZM69.9909 72C69.3669 72 68.8509 71.796 68.4429 71.388C68.0349 70.956 67.8309 70.428 67.8309 69.804V47.556C67.8309 46.932 68.0349 46.416 68.4429 46.008C68.8509 45.576 69.3669 45.36 69.9909 45.36C70.6149 45.36 71.1309 45.576 71.5389 46.008C71.9469 46.416 72.1509 46.932 72.1509 47.556V69.804C72.1509 70.428 71.9469 70.956 71.5389 71.388C71.1309 71.796 70.6149 72 69.9909 72ZM81.4389 52.74C81.9909 52.74 82.4709 52.968 82.8789 53.424C83.2869 53.88 83.4909 54.324 83.4909 54.756C83.4909 55.332 83.2029 55.872 82.6269 56.376L71.7909 66.348L71.6109 61.38L79.8549 53.424C80.3109 52.968 80.8389 52.74 81.4389 52.74ZM81.9789 71.964C81.3549 71.964 80.8269 71.724 80.3949 71.244L73.7349 64.188L77.0109 61.164L83.4909 68.22C83.9469 68.7 84.1749 69.24 84.1749 69.84C84.1749 70.464 83.9229 70.98 83.4189 71.388C82.9389 71.772 82.4589 71.964 81.9789 71.964ZM89.875 71.964C89.179 71.964 88.639 71.784 88.255 71.424C87.895 71.04 87.715 70.5 87.715 69.804V69.192C87.715 68.496 87.895 67.968 88.255 67.608C88.639 67.224 89.179 67.032 89.875 67.032H90.343C91.039 67.032 91.567 67.224 91.927 67.608C92.311 67.968 92.503 68.496 92.503 69.192V69.804C92.503 70.5 92.311 71.04 91.927 71.424C91.567 71.784 91.039 71.964 90.343 71.964H89.875Z" fill="#F35640"/>
</svg>
